<svg id="レイヤー_1" data-name="レイヤー 1" xmlns="http://www.w3.org/2000/svg" viewBox="0 0 20 20"><defs><style>.cls-1{fill:#171919;}</style></defs><title>share-twitter</title><path class="cls-1" d="M18,6.5a11.29,11.29,0,0,1-1.37,5.35,11,11,0,0,1-3.94,4.34A11.39,11.39,0,0,1,6.29,18,11.48,11.48,0,0,1,0,16.19a9.62,9.62,0,0,0,1,0A8.22,8.22,0,0,0,6.09,14.5a3.83,3.83,0,0,1-2.4-.79,4,4,0,0,1-1.42-2,6.34,6.34,0,0,0,.74,0,5.06,5.06,0,0,0,1.09-.12,4.1,4.1,0,0,1-2.34-1.42A3.81,3.81,0,0,1,.82,7.69V7.62a3.88,3.88,0,0,0,1.84.53A4.44,4.44,0,0,1,1.33,6.69a3.84,3.84,0,0,1,.08-4,11.14,11.14,0,0,0,3.73,3A11.59,11.59,0,0,0,9.84,7,5.7,5.7,0,0,1,9.77,6a4.07,4.07,0,0,1,5.72-3.69,4.49,4.49,0,0,1,1.35.92,8.44,8.44,0,0,0,2.61-1,4,4,0,0,1-1.79,2.23A8.57,8.57,0,0,0,20,3.88,8.87,8.87,0,0,1,17.93,6,2,2,0,0,1,18,6.5Z"/></svg>